<svg xmlns="http://www.w3.org/2000/svg" width="143.82" height="155.5" viewBox="0 0 143.82 155.5">
  <g id="Layer_2" data-name="Layer 2" transform="translate(-2869.375 -369.08)">
    <g id="Layer_1-2" data-name="Layer 1-2">
      <circle id="Ellipse_31" data-name="Ellipse 31" cx="19.59" cy="19.59" r="19.59" transform="translate(2942.584 371.58)" fill="none" stroke="#3e3127" stroke-miterlimit="10" stroke-width="5"/>
      <circle id="Ellipse_32" data-name="Ellipse 32" cx="19.59" cy="19.59" r="19.59" transform="translate(2900.805 371.58)" fill="#fff" stroke="#3e3127" stroke-miterlimit="10" stroke-width="5"/>
      <rect id="Rectangle_68" data-name="Rectangle 68" width="138.82" height="29.81" rx="3.66" transform="translate(2872.445 394.9)" fill="#0c6655"/>
      <path id="Path_137" data-name="Path 137" d="M3010.115,402.08v5.69c0-3.33,1.31-6-2.05-6h-135.69c-3.32,0-1,2.72-1,6v-5.69c0-3.32-2.27-6.05,1.05-6.05h135.64C3011.425,396.02,3010.115,398.75,3010.115,402.08Z" fill="#0fa588"/>
      <path id="Path_138" data-name="Path 138" d="M2884.785,424.38h111.15a6.311,6.311,0,0,1,6.31,6.31v83a8.311,8.311,0,0,1-8.31,8.31h-107.15a8.31,8.31,0,0,1-8.31-8.31v-83a6.31,6.31,0,0,1,6.31-6.31Z" fill="#0fa588"/>
      <rect id="Rectangle_69" data-name="Rectangle 69" width="123.21" height="8.52" transform="translate(2879.755 425.57)" fill="#0c846d"/>
      <rect id="Rectangle_70" data-name="Rectangle 70" width="123.21" height="8.52" transform="translate(2879.755 513.01)" fill="#0c846d"/>
      <path id="Path_139" data-name="Path 139" d="M2958.315,522.79V395.61c-.74-.75-31.79,0-31.79,0V522.79Z" fill="#eba42c"/>
      <rect id="Rectangle_71" data-name="Rectangle 71" width="31.79" height="5.69" transform="translate(2926.215 395.91)" fill="#f4cda2"/>
      <rect id="Rectangle_72" data-name="Rectangle 72" width="31.79" height="8.5" transform="translate(2925.395 425.57)" fill="#d38a20"/>
      <rect id="Rectangle_73" data-name="Rectangle 73" width="31.79" height="8.5" transform="translate(2925.395 513.01)" fill="#d38a20"/>
      <path id="Path_140" data-name="Path 140" d="M2879.375,424.43h123.8v92.65a5,5,0,0,1-5,5h-113.8a5,5,0,0,1-5-5V424.43Z" fill="none" stroke="#3e3127" stroke-miterlimit="10" stroke-width="5"/>
      <circle id="Ellipse_33" data-name="Ellipse 33" cx="10.22" cy="10.22" r="10.22" transform="translate(2968.324 431.25)" fill="#0c6655"/>
      <circle id="Ellipse_34" data-name="Ellipse 34" cx="7.2" cy="7.2" r="7.2" transform="translate(2928.334 503.03)" fill="#d38a20"/>
      <circle id="Ellipse_35" data-name="Ellipse 35" cx="2.28" cy="2.28" r="2.28" transform="translate(2939.824 499.94)" fill="#d38a20"/>
      <circle id="Ellipse_36" data-name="Ellipse 36" cx="3.89" cy="3.89" r="3.89" transform="translate(2986.015 450.07)" fill="#0c6655"/>
      <line id="Line_1" data-name="Line 1" y2="36.15" transform="translate(2889.985 461.82)" fill="none" stroke="#fff" stroke-linecap="round" stroke-miterlimit="10" stroke-width="3"/>
      <line id="Line_2" data-name="Line 2" y2="7.91" transform="translate(2889.985 445.42)" fill="none" stroke="#fff" stroke-linecap="round" stroke-miterlimit="10" stroke-width="3" opacity="0.5" style="isolation: isolate"/>
      <path id="Path_141" data-name="Path 141" d="M2956.685,469.86l-29.8-12.11V439.59l29.8,12.1Z" fill="#f4cda2"/>
      <path id="Path_142" data-name="Path 142" d="M2956.685,481.6l-29.8-12.1v-6.07l29.8,12.1Z" fill="#fcdcbe"/>
      <path id="Path_143" data-name="Path 143" d="M2956.685,486.16l-29.8-12.1v-2.07l29.8,12.1Z" fill="#fcdcbe"/>
      <line id="Line_3" data-name="Line 3" y1="127.18" transform="translate(2925.385 393.34)" fill="none" stroke="#3e3127" stroke-miterlimit="10" stroke-width="4"/>
      <line id="Line_4" data-name="Line 4" y2="127.18" transform="translate(2957.185 393.34)" fill="none" stroke="#3e3127" stroke-miterlimit="10" stroke-width="4"/>
      <rect id="Rectangle_74" data-name="Rectangle 74" width="138.82" height="29.81" rx="5" transform="translate(2871.875 393.77)" fill="none" stroke="#3e3127" stroke-miterlimit="10" stroke-width="5"/>
    </g>
  </g>
</svg>
