<?xml version="1.0" encoding="utf-8"?>
<!-- Generator: Adobe Illustrator 21.0.0, SVG Export Plug-In . SVG Version: 6.00 Build 0)  -->
<svg version="1.1" id="Layer_1" xmlns="http://www.w3.org/2000/svg" xmlns:xlink="http://www.w3.org/1999/xlink" x="0px" y="0px"
	 viewBox="0 0 1000 1000" style="enable-background:new 0 0 1000 1000;" xml:space="preserve">
<style type="text/css">
	.st0{fill:#A6A8AB;}
	.st1{fill:#FFFFFF;}
</style>
<g>
	<g>
		<path d="M662.9,534H461.6c-4.1,0-7.4-3.3-7.4-7.4V479c0-4.1,3.3-7.4,7.4-7.4h201.2c4.1,0,7.4,3.3,7.4,7.4v47.7
			C670.3,530.7,667,534,662.9,534z"/>
		<path class="st0" d="M662.9,534.9H461.6c-4.5,0-8.2-3.7-8.2-8.2V479c0-4.5,3.7-8.2,8.2-8.2h201.2c4.5,0,8.2,3.7,8.2,8.2v47.7
			C671.1,531.2,667.4,534.9,662.9,534.9z M461.6,472.4c-3.6,0-6.6,2.9-6.6,6.6v47.7c0,3.6,2.9,6.6,6.6,6.6h201.2
			c3.6,0,6.6-2.9,6.6-6.6V479c0-3.6-2.9-6.6-6.6-6.6H461.6z"/>
	</g>
	<g>
		<path class="st1" d="M525.9,489l-0.9,3h-2l3.4-10.5h2.5l3.4,10.5h-2.1l-1-3H525.9z M528.9,487.6l-0.8-2.6c-0.2-0.6-0.4-1.4-0.5-2
			h0c-0.2,0.6-0.3,1.3-0.5,2l-0.8,2.6H528.9z"/>
		<path class="st1" d="M535.1,484.4l1.2,3.9c0.2,0.7,0.4,1.3,0.5,1.9h0c0.1-0.6,0.3-1.2,0.5-1.9l1.2-3.9h2l-2.9,7.6h-1.9l-2.8-7.6
			H535.1z"/>
		<path class="st1" d="M548.3,490.2c0,0.7,0,1.4,0.1,1.8h-1.7l-0.1-0.8h0c-0.5,0.6-1.2,1-2.2,1c-1.5,0-2.4-1.1-2.4-2.3
			c0-1.9,1.7-2.9,4.5-2.9v-0.1c0-0.5-0.2-1.3-1.5-1.3c-0.7,0-1.5,0.2-2,0.6l-0.4-1.2c0.6-0.3,1.5-0.7,2.7-0.7c2.4,0,3.1,1.5,3.1,3.2
			V490.2z M546.5,488.3c-1.4,0-2.7,0.3-2.7,1.4c0,0.7,0.5,1.1,1.1,1.1c0.8,0,1.3-0.5,1.5-1c0-0.1,0-0.3,0-0.4V488.3z"/>
		<path class="st1" d="M552,483.3c-0.6,0-1.1-0.5-1.1-1c0-0.6,0.4-1,1.1-1c0.7,0,1.1,0.5,1.1,1C553.1,482.8,552.7,483.3,552,483.3
			L552,483.3z M551,492v-7.6h1.9v7.6H551z"/>
		<path class="st1" d="M555.7,480.9h1.9V492h-1.9V480.9z"/>
		<path class="st1" d="M566.3,490.2c0,0.7,0,1.4,0.1,1.8h-1.7l-0.1-0.8h0c-0.5,0.6-1.2,1-2.2,1c-1.5,0-2.4-1.1-2.4-2.3
			c0-1.9,1.7-2.9,4.5-2.9v-0.1c0-0.5-0.2-1.3-1.5-1.3c-0.7,0-1.5,0.2-2,0.6l-0.4-1.2c0.6-0.3,1.5-0.7,2.7-0.7c2.4,0,3.1,1.5,3.1,3.2
			V490.2z M564.5,488.3c-1.4,0-2.7,0.3-2.7,1.4c0,0.7,0.5,1.1,1.1,1.1c0.8,0,1.3-0.5,1.5-1c0-0.1,0-0.3,0-0.4V488.3z"/>
		<path class="st1" d="M569,480.9h1.9v4.5h0c0.5-0.7,1.3-1.2,2.4-1.2c1.9,0,3.2,1.5,3.2,3.9c0,2.7-1.7,4.1-3.4,4.1
			c-1,0-1.9-0.4-2.4-1.3h0l-0.1,1.1H569c0-0.5,0.1-1.4,0.1-2.1V480.9z M571,488.9c0,0.2,0,0.3,0,0.5c0.2,0.8,0.9,1.3,1.7,1.3
			c1.2,0,1.9-1,1.9-2.5c0-1.3-0.6-2.4-1.9-2.4c-0.8,0-1.5,0.6-1.7,1.4c0,0.1-0.1,0.3-0.1,0.5V488.9z"/>
		<path class="st1" d="M578.9,480.9h1.9V492h-1.9V480.9z"/>
		<path class="st1" d="M584.9,488.7c0,1.4,1.1,2,2.3,2c0.9,0,1.5-0.1,2.1-0.3l0.3,1.3c-0.7,0.3-1.6,0.5-2.7,0.5
			c-2.5,0-3.9-1.5-3.9-3.8c0-2.1,1.3-4.1,3.7-4.1c2.5,0,3.3,2,3.3,3.7c0,0.4,0,0.6-0.1,0.8H584.9z M588.3,487.4
			c0-0.7-0.3-1.9-1.6-1.9c-1.2,0-1.7,1.1-1.8,1.9H588.3z"/>
		<path class="st1" d="M599.5,492.2c-2.1,0-3.8-1.5-3.8-3.9c0-2.5,1.6-4,3.9-4c2.3,0,3.8,1.6,3.8,3.9
			C603.4,490.9,601.5,492.2,599.5,492.2L599.5,492.2z M599.6,490.8c1.1,0,1.9-1.1,1.9-2.6c0-1.2-0.5-2.6-1.8-2.6
			c-1.4,0-1.9,1.3-1.9,2.6C597.7,489.7,598.4,490.8,599.6,490.8L599.6,490.8z"/>
		<path class="st1" d="M605.7,486.7c0-0.9,0-1.6-0.1-2.3h1.7l0.1,1.1h0c0.3-0.6,1.2-1.3,2.4-1.3c1.3,0,2.7,0.9,2.7,3.3v4.5h-1.9
			v-4.3c0-1.1-0.4-1.9-1.5-1.9c-0.8,0-1.3,0.5-1.5,1.1c-0.1,0.2-0.1,0.4-0.1,0.6v4.5h-1.9V486.7z"/>
		<path class="st1" d="M621.4,482.4v2h1.8v1.4h-1.8v3.3c0,0.9,0.3,1.4,1,1.4c0.3,0,0.5,0,0.7-0.1l0,1.5c-0.3,0.1-0.8,0.2-1.4,0.2
			c-0.7,0-1.3-0.2-1.7-0.6c-0.4-0.4-0.6-1.1-0.6-2.1v-3.6h-1.1v-1.4h1.1V483L621.4,482.4z"/>
		<path class="st1" d="M625.4,480.9h1.9v4.5h0c0.2-0.4,0.6-0.7,1-0.9c0.4-0.2,0.8-0.3,1.3-0.3c1.3,0,2.7,0.9,2.7,3.3v4.5h-1.9v-4.3
			c0-1.1-0.4-1.9-1.5-1.9c-0.7,0-1.3,0.5-1.5,1.1c-0.1,0.2-0.1,0.4-0.1,0.6v4.6h-1.9V480.9z"/>
		<path class="st1" d="M636.4,488.7c0,1.4,1.1,2,2.3,2c0.9,0,1.5-0.1,2.1-0.3l0.3,1.3c-0.7,0.3-1.6,0.5-2.7,0.5
			c-2.5,0-3.9-1.5-3.9-3.8c0-2.1,1.3-4.1,3.7-4.1c2.5,0,3.3,2,3.3,3.7c0,0.4,0,0.6-0.1,0.8H636.4z M639.7,487.4
			c0-0.7-0.3-1.9-1.6-1.9c-1.2,0-1.7,1.1-1.8,1.9H639.7z"/>
	</g>
	<g>
		<g>
			<path class="st1" d="M502,502.2c0-5.2,4.3-7.7,4.5-7.9c-2.4-3.6-6.2-4-7.6-4.1c-3.2-0.3-6.3,1.9-7.9,1.9c-1.7,0-4.1-1.9-6.8-1.8
				c-3.5,0.1-6.7,2.1-8.5,5.2c-3.7,6.3-0.9,15.7,2.6,20.8c1.8,2.5,3.8,5.3,6.5,5.2c2.6-0.1,3.6-1.7,6.8-1.7c3.1,0,4.1,1.7,6.8,1.6
				c2.8,0,4.6-2.5,6.3-5.1c2-2.9,2.8-5.7,2.9-5.9C507.5,510.5,502.1,508.4,502,502.2"/>
			<path class="st1" d="M496.9,486.9c1.4-1.8,2.4-4.2,2.1-6.6c-2,0.1-4.6,1.4-6.1,3.1c-1.3,1.5-2.5,4-2.2,6.4
				C493,490,495.4,488.6,496.9,486.9"/>
		</g>
		<g>
			<path class="st1" d="M540,521.1h-3.7l-2-6.3h-7l-1.9,6.3h-3.6l6.9-21.4h4.3L540,521.1z M533.7,512.1l-1.8-5.6
				c-0.2-0.6-0.6-1.9-1.1-4h-0.1c-0.2,0.9-0.6,2.3-1,4l-1.8,5.6H533.7z"/>
			<path class="st1" d="M557.7,513.2c0,2.6-0.7,4.7-2.1,6.2c-1.3,1.4-2.9,2-4.7,2c-2,0-3.5-0.7-4.4-2.2h-0.1v8.1H543v-16.7
				c0-1.7,0-3.3-0.1-5.1h3l0.2,2.4h0.1c1.1-1.8,2.9-2.8,5.2-2.8c1.8,0,3.3,0.7,4.6,2.2C557.1,508.9,557.7,510.8,557.7,513.2
				 M554.2,513.3c0-1.5-0.3-2.7-1-3.7c-0.7-1-1.7-1.5-3-1.5c-0.8,0-1.6,0.3-2.3,0.8c-0.7,0.6-1.1,1.3-1.4,2.2
				c-0.1,0.4-0.2,0.8-0.2,1v2.6c0,1.1,0.3,2.1,1,2.8c0.7,0.8,1.6,1.2,2.7,1.2c1.3,0,2.3-0.5,3-1.5
				C553.9,516.2,554.2,514.9,554.2,513.3"/>
			<path class="st1" d="M575.5,513.2c0,2.6-0.7,4.7-2.1,6.2c-1.3,1.4-2.8,2-4.7,2c-2,0-3.5-0.7-4.4-2.2h-0.1v8.1h-3.4v-16.7
				c0-1.7,0-3.3-0.1-5.1h3l0.2,2.4h0.1c1.1-1.8,2.9-2.8,5.2-2.8c1.8,0,3.3,0.7,4.6,2.2C574.9,508.9,575.5,510.8,575.5,513.2
				 M572,513.3c0-1.5-0.3-2.7-1-3.7c-0.7-1-1.7-1.5-3-1.5c-0.8,0-1.6,0.3-2.3,0.8c-0.7,0.6-1.1,1.3-1.3,2.2c-0.1,0.4-0.2,0.8-0.2,1
				v2.6c0,1.1,0.3,2.1,1,2.8c0.7,0.8,1.6,1.2,2.7,1.2c1.3,0,2.3-0.5,3-1.5C571.6,516.2,572,514.9,572,513.3"/>
			<path class="st1" d="M595.4,515.1c0,1.8-0.6,3.3-1.9,4.5c-1.4,1.3-3.3,1.9-5.8,1.9c-2.3,0-4.2-0.4-5.6-1.3l0.8-2.9
				c1.5,0.9,3.2,1.4,5,1.4c1.3,0,2.3-0.3,3-0.9c0.7-0.6,1.1-1.4,1.1-2.3c0-0.9-0.3-1.6-0.9-2.2c-0.6-0.6-1.6-1.1-3-1.7
				c-3.8-1.4-5.6-3.5-5.6-6.1c0-1.8,0.7-3.2,2-4.3c1.3-1.1,3.1-1.7,5.2-1.7c2,0,3.6,0.3,4.9,1l-0.9,2.8c-1.2-0.7-2.6-1-4.1-1
				c-1.2,0-2.2,0.3-2.8,0.9c-0.6,0.5-0.9,1.2-0.9,1.9c0,0.8,0.3,1.5,1,2.1c0.6,0.5,1.6,1.1,3.1,1.7c1.8,0.7,3.2,1.6,4.1,2.6
				C594.9,512.3,595.4,513.6,595.4,515.1"/>
			<path class="st1" d="M606.7,508.2h-3.8v7.5c0,1.9,0.7,2.9,2,2.9c0.6,0,1.1-0.1,1.5-0.2l0.1,2.6c-0.7,0.3-1.6,0.4-2.7,0.4
				c-1.4,0-2.4-0.4-3.2-1.2c-0.8-0.8-1.1-2.2-1.1-4.2v-7.8h-2.3v-2.6h2.3v-2.8l3.4-1v3.8h3.8V508.2z"/>
			<path class="st1" d="M623.8,513.2c0,2.4-0.7,4.3-2,5.9c-1.4,1.6-3.3,2.4-5.7,2.4c-2.3,0-4.1-0.8-5.4-2.3c-1.3-1.5-2-3.4-2-5.7
				c0-2.4,0.7-4.4,2.1-5.9c1.4-1.5,3.3-2.3,5.6-2.3c2.3,0,4.1,0.8,5.5,2.3C623.2,509,623.8,510.9,623.8,513.2 M620.2,513.3
				c0-1.4-0.3-2.6-0.9-3.7c-0.7-1.2-1.7-1.9-3.1-1.9c-1.4,0-2.4,0.6-3.1,1.9c-0.6,1-0.9,2.3-0.9,3.7c0,1.4,0.3,2.6,0.9,3.7
				c0.7,1.2,1.8,1.8,3.1,1.8c1.3,0,2.3-0.6,3.1-1.9C619.9,516,620.2,514.8,620.2,513.3"/>
			<path class="st1" d="M635,508.6c-0.3-0.1-0.7-0.1-1.1-0.1c-1.2,0-2.1,0.5-2.8,1.4c-0.6,0.8-0.9,1.8-0.9,3.1v8.1h-3.4l0-10.6
				c0-1.8,0-3.4-0.1-4.9h3l0.1,3h0.1c0.4-1,0.9-1.8,1.7-2.4c0.8-0.6,1.6-0.8,2.5-0.8c0.3,0,0.6,0,0.9,0.1V508.6z"/>
			<path class="st1" d="M650.3,512.6c0,0.6,0,1.1-0.1,1.6h-10.3c0,1.5,0.5,2.7,1.5,3.5c0.9,0.7,2,1.1,3.4,1.1c1.5,0,2.9-0.2,4.2-0.7
				l0.5,2.4c-1.5,0.6-3.2,1-5.2,1c-2.4,0-4.3-0.7-5.6-2.1c-1.4-1.4-2.1-3.3-2.1-5.7c0-2.3,0.6-4.3,1.9-5.8c1.3-1.7,3.1-2.5,5.4-2.5
				c2.2,0,3.9,0.8,5.1,2.5C649.9,509.1,650.3,510.7,650.3,512.6 M647.1,511.7c0-1-0.2-1.9-0.7-2.6c-0.6-1-1.5-1.4-2.7-1.4
				c-1.1,0-2,0.5-2.7,1.4c-0.6,0.7-0.9,1.6-1,2.7H647.1z"/>
		</g>
	</g>
</g>
</svg>
