<svg xmlns="http://www.w3.org/2000/svg" xmlns:xlink="http://www.w3.org/1999/xlink" width="352.6" height="104.1" viewBox="0 0 352.6 104.1">
  <defs>
    <rect id="rect-1" width="352.6" height="104.1" x="0" y="0"/>
    <mask id="mask-2" maskContentUnits="userSpaceOnUse" maskUnits="userSpaceOnUse">
      <rect width="352.6" height="104.1" x="0" y="0" fill="black"/>
      <use fill="white" xlink:href="#rect-1"/>
    </mask>
    <linearGradient id="linearGradient-8" x1="81.328" x2="18.319" y1="52.315" y2="52.315" gradientUnits="userSpaceOnUse">
      <stop offset="0" stop-color="rgb(254,224,0)"/>
      <stop offset=".194" stop-color="rgb(252,207,11)"/>
      <stop offset=".547" stop-color="rgb(250,179,24)"/>
      <stop offset=".828" stop-color="rgb(249,162,27)"/>
      <stop offset="1" stop-color="rgb(249,155,28)"/>
    </linearGradient>
    <linearGradient id="linearGradient-10" x1="64.977" x2="5.712" y1="58.302" y2="117.7" gradientUnits="userSpaceOnUse">
      <stop offset="0" stop-color="rgb(239,69,71)"/>
      <stop offset="1" stop-color="rgb(198,24,109)"/>
    </linearGradient>
    <linearGradient id="linearGradient-12" x1="5.448" x2="53.836" y1="-13.338" y2="35.157" gradientUnits="userSpaceOnUse">
      <stop offset="0" stop-color="rgb(39,158,111)"/>
      <stop offset=".317" stop-color="rgb(77,171,109)"/>
      <stop offset=".74" stop-color="rgb(106,186,106)"/>
      <stop offset="1" stop-color="rgb(116,193,105)"/>
    </linearGradient>
  </defs>
  <g>
    <use fill="none" xlink:href="#rect-1"/>
    <g mask="url(#mask-2)">
      <g>
        <path fill="rgb(0,0,0)" fill-rule="evenodd" d="M339.31268382 102.63837754H13.28731618c-6.6436581 0-11.99099265-5.35928238-11.99099265-12.01778472V13.31700468c0-6.65850234 5.34733456-12.01778471 11.99099265-12.01778471h326.02536764c6.6436581 0 11.99099265 5.35928237 11.99099265 12.01778471v77.46599064c0 6.49609984-5.34733456 11.85538222-11.99099265 11.85538222z"/>
        <path fill="rgb(167,169,172)" fill-rule="evenodd" d="M13.28729248 104.10009766h326.02539063c7.29180908 0 13.28729248-6.00878907 13.28729248-13.31689454V13.31689454C352.59997559 6.00878906 346.60449219 0 339.3126831 0H13.28729248C5.9954834 0 0 6.00878906 0 13.31689453v77.4663086c0 7.30810546 5.9954834 13.31689453 13.28729248 13.31689453zM2.59265137 13.3173828c0-6.00927734 4.86120605-10.71875 10.69464111-10.71875h326.02539063c5.99554443 0 10.6946411 4.87207032 10.6946411 10.71875v77.46582032c0 6.00878906-4.86120605 10.71875-10.6946411 10.71875H13.28729248c-5.9954834 0-10.69464111-4.87207032-10.69464111-10.71875V13.3173828z"/>
      </g>
      <g>
        <path fill="rgb(255,255,255)" fill-rule="evenodd" d="M124.7711792 60.4140625v4.546875h11.18078613c-.32409668 2.59863281-1.29632568 4.54736328-2.59265137 6.00927734-1.62042236 1.62402344-4.21307373 3.41015625-8.7501831 3.41015625-6.96777344 0-12.31506348-5.52148437-12.31506348-12.5048828 0-6.98339845 5.34729004-12.50488282 12.31506348-12.50488282 3.72692871 0 6.48162842 1.46142578 8.42608643 3.41015625l3.24084472-3.24804688c-2.7546997-2.76074218-6.48162842-4.70947265-11.82897949-4.70947265-9.56036377 0-17.50036621 7.79541015-17.50036621 17.21484375 0 9.58154297 7.94000244 17.21435547 17.50036621 17.21435547 5.18530273 0 8.91223144-1.62402344 11.9909668-4.87207032 3.07879638-3.08544921 4.05102539-7.47021484 4.05102539-11.04345703 0-1.13671875-.16204834-2.11083984-.32403565-2.92285156H124.7711792zm95.76586914 18.02636719h-4.86120605v-32.6430664h4.86120605v32.6430664zm45.04724121-32.6430664H253.9173584v32.6430664h4.86120605V66.09765625h6.8057251c5.34729004 0 10.69464111-3.89746094 10.69464111-10.06884766 0-6.17138671-5.18530273-10.2314453-10.6946411-10.2314453zm18.31054688 32.6430664h-4.86120606v-32.6430664h4.86120606v32.6430664zm-25.11627198-16.89013672h6.9677124c3.72692872 0 5.67144776-3.08544922 5.67144776-5.68408203 0-2.43603516-2.10650635-5.52148438-5.67144775-5.52148438h-6.9677124v11.2055664zm-105.1642456-4.70947266c-6.15753174 0-11.18078614 4.70947266-11.18078614 11.04345703 0 6.3334961 5.0232544 11.04345704 11.18078614 11.04345704 6.15753174 0 11.18078613-4.70996094 11.18078613-11.04345704 0-6.33398437-5.0232544-11.04345703-11.18078613-11.04345703zm13.12530517 11.04345703c0-6.33398437 5.0232544-11.04345703 11.18078614-11.04345703 6.15753173 0 11.01873779 4.70947266 11.18078613 11.04345703 0 6.3334961-5.0232544 11.04345704-11.18078613 11.04345704-6.15753174 0-11.18078614-4.70996094-11.18078614-11.04345704zm66.59863282-11.04345703c5.83343505 0 8.58813476 4.70947266 9.56036377 7.14550782l.32409668.97460937-14.74572754 6.17138672c1.13433837 2.2734375 2.91674804 3.41015625 5.34735107 3.41015625 2.59265137 0 4.21307373-1.29882813 5.50939941-3.08544922l3.72692872 2.59863281c-1.29632569 1.78613282-4.21307374 4.87207032-9.23632813 4.87207032-6.31958008 0-11.0187378-4.87207032-11.0187378-11.04345704 0-6.49609375 4.86120606-11.04345703 10.53265382-11.04345703zm62.54760742 0c-3.5649414 0-7.12982178 1.62402344-8.7501831 5.03466797l4.37506103 1.78613281c.972229-1.7861328 2.59265136-2.43603515 4.37512207-2.43603515 2.59265136 0 5.0232544 1.46191406 5.1852417 4.22265625v.32470703c-.81018067-.48730469-2.75463867-1.2993164-5.0232544-1.2993164-4.69915771 0-9.39831543 2.5986328-9.39831543 7.30810546 0 4.38476563 3.88897705 7.1459961 8.10205078 7.1459961 3.2407837 0 5.0232544-1.46191407 6.15753174-3.24804688h.1619873v2.59814453h4.69921876V65.77294922c0-5.68408203-4.37512207-8.9321289-9.88446045-8.9321289zm-88.15002442 2.59863282h-.16204834c-1.13427734-1.29931641-3.24084472-2.43603516-5.83349609-2.43603516-5.50933838 0-10.69464111 4.87207031-10.69464111 11.2055664 0 6.17138672 5.0232544 11.04345704 10.69464111 11.04345704 2.59265137 0 4.69921875-1.13671875 5.8334961-2.59814454h.16204833v1.62402344c0 4.22216797-2.26861572 6.49609375-5.99554443 6.49609375-2.91668701 0-4.86120605-2.11132812-5.50933838-3.89794922l-4.21307373 1.7866211c1.29632568 2.92333984 4.37512207 6.49609375 9.88446045 6.49609375 5.67144775 0 10.5326538-3.41064453 10.5326538-11.53076172V57.49072266h-4.6991577v1.94873046zm115.0487671-1.94873047l-5.50939942 14.12890625h-.16204834l-5.83343506-14.12890625h-5.18530273l8.7501831 19.81298828-5.0232544 11.04345703h5.0232544l13.44934082-30.85644531h-5.50933838zM195.90692138 68.04638672c0 3.89794922 2.7546997 6.6586914 6.15753173 6.6586914 3.40283204 0 5.9954834-2.76074218 5.9954834-6.6586914 0-3.89746094-2.75463867-6.82080078-5.9954834-6.82080078-3.40283203 0-6.15753173 2.92333984-6.15753173 6.82080078zm31.7598877-.32470703c-.16204835-4.22265625 3.24078368-6.49609375 5.83343505-6.49609375 1.94451904 0 3.56488037.97460937 4.0510254 2.43603515l-9.88446046 4.0600586zm-80.37207032.32519531c0 3.89746094 2.91674805 6.65820313 6.31958008 6.65820313s6.31958008-2.7607422 6.31958008-6.65820313c0-3.89794922-2.91674805-6.6586914-6.31958008-6.6586914s-6.31958008 2.5986328-6.31958008 6.6586914zm24.3060913 0c0 3.89746094 2.91674805 6.65820313 6.31958009 6.65820313 3.24078369 0 6.15753173-2.7607422 6.31958007-6.65820313 0-3.89794922-2.91674804-6.6586914-6.31958007-6.6586914s-6.31958008 2.5986328-6.31958008 6.6586914zm119.74786378 3.89746094c0 1.94873047 2.26855469 2.76074218 3.88897705 2.76074218 2.7546997 0 5.34735107-2.11132812 5.67138672-5.03466796-1.29632569-.64941407-2.26855469-1.13671875-4.37506104-1.13671875-2.43060303 0-5.18530273.81201171-5.18530273 3.41064453z"/>
        <g>
          <path fill="rgb(91,201,244)" fill-rule="evenodd" d="M27.546875 19.81310452c-.8102022.81201248-1.13428309 2.11123245-1.13428309 3.73525741v57.65288612c0 1.62402496.48612133 2.92324493 1.13428309 3.73525741l.16204044.1624025 32.2460478-32.48049922v-.64960999l-32.2460478-32.31809672-.16204044.1624025z"/>
          <path fill="url(#linearGradient-8)" fill-rule="evenodd" d="M70.64963235 63.49937598L59.95496324 52.61840874v-.64960999l10.69466911-10.71856474.16204044.1624025 12.80119486 7.30811232c3.5648897 2.11123245 3.5648897 5.52168487 0 7.47051482l-12.63915441 7.14570983-.32408089.1624025z"/>
          <path fill="url(#linearGradient-10)" fill-rule="evenodd" d="M70.97371324 63.33697348l-11.01875-11.04336974L27.546875 84.77410296c1.13428309 1.29921997 3.24080882 1.46162247 5.34733456.1624025l38.07950368-21.59953198"/>
          <path fill="url(#linearGradient-12)" fill-rule="evenodd" d="M70.97371324 41.250234L32.89420956 19.65070204c-2.26856618-1.29921997-4.21305147-1.13681747-5.34733456.1624025l32.40808824 32.48049921 11.01875-11.04336973z"/>
        </g>
      </g>
      <g>
        <path fill="rgb(255,255,255)" fill-rule="evenodd" d="M119.74788603 21.59953198c-.97224265-.81201248-2.26856618-1.46162246-3.72693015-1.46162246-3.24080882 0-5.67141544 2.59843993-5.67141544 5.84648986 0 3.24804992 2.43060662 5.84648986 5.67141544 5.84648986 2.7546875 0 4.6991728-1.62402497 4.86121324-4.2224649h-4.21305147v-1.62402496h6.64365809c0 5.35928237-2.91672795 7.9577223-7.29181986 7.9577223-4.3750919 0-7.77794117-3.5728549-7.77794117-7.7953198 0-4.3848674 3.40284926-7.95772232 7.77794117-7.95772232 1.9444853 0 3.8889706.81201248 5.18529412 2.11123245l-1.45836397 1.29921997z"/>
        <path fill="rgb(255,255,255)" fill-rule="evenodd" d="M135.30376838 18.35148206V20.300312h-6.96773897v4.87207489h6.15753677v1.94882995h-6.15753677v4.70967239h7.29181985v1.94882995h-9.23630514V18.35148206h8.91222426z"/>
        <path fill="rgb(255,255,255)" fill-rule="evenodd" d="M148.753125 18.35148206V20.300312h-4.6991728V33.7797192h-2.10652573V20.300312h-4.6991728v-1.94882995H148.753125z"/>
        <path fill="rgb(255,255,255)" fill-rule="evenodd" d="M158.63759191 18.35148206v15.42823713h-2.10652573V18.35148206h2.10652573z"/>
        <path fill="rgb(255,255,255)" fill-rule="evenodd" d="M172.7351103 18.35148206V20.300312h-4.6991728V33.7797192h-2.10652574V20.300312h-4.69917279v-1.94882995h11.50487132z"/>
        <path fill="rgb(255,255,255)" fill-rule="evenodd" d="M195.09674072 26.14648438c0-4.38476563-3.40289306-7.95751954-7.7779541-7.95751954-4.37512207 0-7.7779541 3.57275391-7.7779541 7.95751953 0 4.22265626 3.40283203 7.79541016 7.7779541 7.79541016 4.37506104 0 7.7779541-3.41015625 7.7779541-7.79541015zm-2.10656738.00048828c0 3.24804687-2.43060303 5.8461914-5.67144775 5.8461914-3.2407837 0-5.67138672-2.59814453-5.67138672-5.8461914 0-3.24804688 2.43060302-5.8466797 5.67138672-5.8466797 3.24084472 0 5.67144775 2.59863282 5.67144775 5.8466797z"/>
        <path fill="rgb(255,255,255)" fill-rule="evenodd" d="M207.4117647 33.77971919l-6.96773896-11.53057722v11.53057722H198.3375V18.35148206h2.10652574l6.96773897 11.53057722V18.35148206h2.10652573v15.42823713h-2.10652573z"/>
      </g>
    </g>
  </g>
</svg>
