<svg xmlns="http://www.w3.org/2000/svg" width="88" height="83" viewBox="0 0 88 83">
  <g id="Group_42" data-name="Group 42" transform="translate(-1272.014 -470.037)">
    <rect id="Rectangle_90" data-name="Rectangle 90" width="88" height="83" rx="18" transform="translate(1272.014 470.037)" fill="#0fcea9"/>
    <rect id="Rectangle_89" data-name="Rectangle 89" width="6.74" height="22.451" transform="translate(1304.493 505.722) rotate(-90)" fill="#fff"/>
    <path id="Path_302" data-name="Path 302" d="M1324.013,501.709v5.825H1343.9v-5.825h-4.818a7.158,7.158,0,0,0,1.57-1.164,3.105,3.105,0,0,0,.335-4.352,2.607,2.607,0,0,0-1.871-.743,3.561,3.561,0,0,0-2.484,1.078,10.147,10.147,0,0,0-2.353,4.761,12.55,12.55,0,0,0-2.8-4.966,4.631,4.631,0,0,0-3.184-1.451,2.674,2.674,0,0,0-1.939.757,2.853,2.853,0,0,0-.7,2.555,4.9,4.9,0,0,0,1.4,2.569,9.07,9.07,0,0,0,1.142.957Zm8.524,1.421v2.842h-7.1v-2.842Zm.2-1.421h-1.125a10.019,10.019,0,0,1-3.428-2.087c-.948-.948-1.272-2.287-.694-2.864a1.132,1.132,0,0,1,.809-.289,3.08,3.08,0,0,1,2.054.983A10.884,10.884,0,0,1,1332.738,501.708Zm3.326-.5-.122.034.034-.122a7.9,7.9,0,0,1,1.791-3.46,1.96,1.96,0,0,1,1.352-.611,1.032,1.032,0,0,1,.741.276,1.089,1.089,0,0,1,.271.854,2.027,2.027,0,0,1-.607,1.239A7.9,7.9,0,0,1,1336.064,501.206Zm6.417,4.765h-7.1v-2.842h7.1Z" transform="translate(-18.239 -7.525)" fill="#fff"/>
    <path id="Path_303" data-name="Path 303" d="M1310.963,538.2c0-.088.014-.171.015-.258h-.041v-13.67h7.039v.01l.012-.01h27.633v12.763c.026.388.07.77.07,1.165a17.364,17.364,0,1,1-34.729,0Z" transform="translate(-12.596 -20.212)" fill="#0c4b3d"/>
  </g>
</svg>
