<?xml version="1.0" encoding="utf-8"?>
<!-- Generator: Adobe Illustrator 21.0.0, SVG Export Plug-In . SVG Version: 6.00 Build 0)  -->
<svg version="1.1" id="Layer_1" xmlns="http://www.w3.org/2000/svg" xmlns:xlink="http://www.w3.org/1999/xlink" x="0px" y="0px"
	 viewBox="0 0 1000 1000" style="enable-background:new 0 0 1000 1000;" xml:space="preserve">
<style type="text/css">
	.st0{fill:#0ECAA7;}
</style>
<g>
	<g>
		<path class="st0" d="M500.1,214.1c-157.9,0-285.9,128-285.9,285.9c0,157.9,128,285.9,285.9,285.9C658,785.9,786,657.9,786,500
			C786,342.1,658,214.1,500.1,214.1z M500.1,744.7c-135.3,0-245-109.7-245-244.9s109.7-244.9,245-244.9
			c135.3,0,244.9,109.7,244.9,244.9S635.4,744.7,500.1,744.7z"/>
	</g>
	<path class="st0" d="M512.7,528.2v75.9c12.7-3.5,29.4-11.9,29.4-36C542.1,542.7,522.8,533.5,512.7,528.2z"/>
	<path class="st0" d="M461.8,429.5c0,23.7,20.2,32.9,29.8,37.3v-71.5C482.9,397.5,461.8,403.6,461.8,429.5z"/>
	<path class="st0" d="M500.1,270.7C373.6,270.9,271.2,373.3,271,499.8c0.2,126.5,102.6,228.9,229.1,229.1
		c126.5-0.2,228.9-102.6,229.1-229.1C729,373.3,626.7,270.9,500.1,270.7z M515.8,651.5v19.7c0,7.5-1.3,8.8-9.2,8.8h-8.8
		c-7.9,0-9.2-1.3-9.2-8.8v-19.7c-14.9,0-76.4-10.1-76.4-23.2c0-1.3,0-1.3,0.9-4l12.7-36.9c0.4-0.9,2.2-3.5,4-3.5
		c2.6,0,32,17.1,58.8,20.2v-86c-26.8-11.8-77.2-27.2-77.2-85.1c0-64.5,57-82.9,77.2-83.8v-21.5c0-7.5,1.3-8.8,9.2-8.8h8.8
		c7.9,0,9.2,1.3,9.2,8.8v21.5c12.7,0.9,68.9,10.5,68.9,25.4c0,1.8-0.4,3.1-1.3,4.8l-13.6,29.8c-0.9,2.2-2.2,3.5-4,3.5
		c-2.6,0-31.2-17.5-50-17.5v81.2c28.5,14,76.8,32.9,76.8,89.1C592.6,626.5,544.8,646.7,515.8,651.5z"/>
</g>
</svg>
