<svg xmlns="http://www.w3.org/2000/svg" xmlns:xlink="http://www.w3.org/1999/xlink" width="38.3" height="43.9" viewBox="0 0 38.3 43.9">
  <defs>
    <rect id="rect-1" width="38.3" height="43.9" x="0" y="0"/>
    <mask id="mask-2" maskContentUnits="userSpaceOnUse" maskUnits="userSpaceOnUse">
      <rect width="38.3" height="43.9" x="0" y="0" fill="black"/>
      <use fill="white" xlink:href="#rect-1"/>
    </mask>
  </defs>
  <g>
    <use fill="none" xlink:href="#rect-1"/>
    <g mask="url(#mask-2)">
      <path fill="rgb(255,255,255)" fill-rule="evenodd" d="M38.3 4.57927677c-.18151659-.12211404-5.9900474 1.89276774-10.40695103 1.09902643C23.53665087 4.8845619 19.42227488 0 19.18025277 0h-.12101106c-.1815166 0-4.29589258 4.8845619-8.65229068 5.6783032C5.99004739 6.4720445.18151659 4.51821975 0 4.57927677V14.9589708c0 .2442281.48404423 6.59415856 2.057188 11.05132128 1.57314375 4.3961057 4.53791469 8.18164117 5.3849921 8.97538248.54454976.61057023 4.7799368 5.189847 10.89099526 8.48692628L19.11974724 43.9l.78657188-.42739917c6.11105845-3.29707927 10.40695102-7.93741307 10.89099526-8.48692628.8470774-.85479833 3.87235387-4.57927678 5.3849921-8.97538248 1.57314376-4.45716272 1.99668246-10.74603616 2.057188-11.05132128L38.3 4.57927677z"/>
    </g>
  </g>
</svg>
