<svg xmlns="http://www.w3.org/2000/svg" xmlns:xlink="http://www.w3.org/1999/xlink" width="42.8" height="43" viewBox="0 0 42.8 43">
  <defs>
    <rect id="rect-1" width="42.8" height="43" x="0" y="0"/>
    <mask id="mask-2" maskContentUnits="userSpaceOnUse" maskUnits="userSpaceOnUse">
      <rect width="42.8" height="43" x="0" y="0" fill="black"/>
      <use fill="white" xlink:href="#rect-1"/>
    </mask>
  </defs>
  <g>
    <use fill="none" xlink:href="#rect-1"/>
    <g mask="url(#mask-2)">
      <path fill="rgb(255,255,255)" fill-rule="evenodd" d="M37.13704735 32.8859155c-2.8016713-1.271831-6.08022284-3.6943662-12.04122562-4.48169015 1.78830083-1.39295774 2.62284122-4.3 4.17270195-8.23661972 0-.06056338.05961002-.12112676.05961002-.18169014.35766017.06056338.71532034.06056338.95376045-.12112676.71532033-.48450704 1.13259053-2.90704225 1.13259053-4.11830986 0-1.8169014-.89415042-1.63521126-.89415042-1.63521126h-.05961003v-.42394367c0-1.63521126.29805014-4.42112676-.11922005-5.93521126-.6557103-2.30140845-.53649025-3.20985916-1.66908078-4.48169014C27.00334262 1.45352113 24.6189415.72676056 23.66518106.72676056c-.6557103 0-3.93426184-1.2112676-5.96100279-.54507042-1.90752089.66619718-.83454039 2.66478873-2.44401114 2.66478873-1.7286908 0-2.44401114 2.54366198-3.09972145 4.84507043-.4172702 1.5140845-.11922005 4.23943662-.11922005 5.93521126v.42394367h-.05961003s-.77493036-.12112677-.77493036 1.69577464c0 1.2112676.4172702 3.6943662 1.13259053 4.11830986.2384401.18169014.59610027.18169014.95376044.12112676 0 .06056338.05961003.12112676.05961003.18169014 1.54986072 3.9971831 2.32479109 6.84366198 4.17270195 8.23661972-5.90139276.78732395-9.17994429 3.20985916-11.92200557 4.42112676C0 35.42957746 0 38.27605634 0 38.27605634V43h42.8v-4.72394366s0-2.84647888-5.66295265-5.39014085z"/>
    </g>
  </g>
</svg>
