<svg xmlns="http://www.w3.org/2000/svg" width="123" height="123" viewBox="0 0 123 123">
  <g>
    <g>
      <ellipse cx="61.5" cy="61.5" fill="rgb(255,255,255)" rx="61.5" ry="61.5"/>
      <path fill="rgb(14,202,167)" fill-rule="evenodd" d="M33.20581055 61.5c0-15.63208008 12.67199707-28.30419922 28.30407715-28.30419922 15.63208007 0 28.30407714 12.67211914 28.30407714 28.30419922 0 15.63208008-12.67199707 28.30395508-28.30407714 28.30395508-15.63208008 0-28.30407715-12.671875-28.30407715-28.30395508zm4.04907226-.0197754c0 13.38476563 10.86035157 24.2451172 24.25500489 24.2451172 13.39465332 0 24.24511718-10.86035157 24.24511718-24.2451172 0-13.38476562-10.85046386-24.24511718-24.24511718-24.24511718-13.39465333 0-24.25500489 10.86035156-24.25500489 24.24511719z"/>
    </g>
    <path fill="rgb(14,202,167)" fill-rule="evenodd" d="M62.7573 64.2918v7.5141c1.2573-.3465 2.9106-1.1781 2.9106-3.564 0-2.5146-1.9107-3.4254-2.9106-3.9501z"/>
    <path fill="rgb(14,202,167)" fill-rule="evenodd" d="M57.7182 54.5205c0 2.3463 1.9998 3.2571 2.9502 3.6927v-7.0785c-.8613.2178-2.9502.8217-2.9502 3.3858z"/>
    <path fill="rgb(14,202,167)" fill-rule="evenodd" d="M38.8289795 61.4802246c.01977538-12.5234375 10.15734862-22.6611328 22.6809082-22.6809082 12.53344726.0197754 22.6611328 10.1574707 22.6809082 22.6809082-.0197754 12.5234375-10.1574707 22.66113282-22.6809082 22.68090821-12.52355958-.01977539-22.66113282-10.1574707-22.6809082-22.6809082zm24.23522948 16.96850587v-1.95019531c2.87097168-.4753418 7.60327149-2.47509766 7.60327149-8.51416016 0-5.5637207-4.78173828-7.43481445-7.60327149-8.82080078v-8.03881836c1.86120606 0 4.69262696 1.73242187 4.95007325 1.73242187.17810058 0 .30688476-.1286621.39599609-.34643554l1.34631348-2.95019532c.08911133-.16821289.12878418-.29711914.12878418-.47509765 0-1.47509766-5.56384278-2.42553711-6.821167-2.51464844v-2.1286621c0-.74243165-.1286621-.87109376-.9107666-.87109376h-.87121582c-.78210449 0-.9107666.12866211-.9107666.87109375v2.12866211c-1.99987793.08911133-7.64282226 1.91064453-7.64282226 8.29614258 0 5.73217773 4.98962402 7.2565918 7.64282226 8.42480469v8.51416015c-2.65319824-.30688476-5.56384277-1.99975586-5.821167-1.99975586-.17822265 0-.3564453.25732422-.39599609.34643555l-1.25732421 3.65307617c-.08911133.26733399-.08911133.26733399-.08911133.3959961 0 1.296875 6.08850097 2.296875 7.56359863 2.296875v1.9501953c0 .74243165.12866211.87109376.9107666.87109376h.87121582c.7821045 0 .9107666-.12866211.9107666-.87109375z"/>
  </g>
</svg>
